# xmcd
#
# Track frame offsets: 
#        150
#        24247
#        50747
#        65190
#        99315
#        111225
#        130995
#        160955
#        188434
#        203975
#        227687
#        253255
#
# Disc length: 3674 seconds
#
# Revision: 2
# Processed by: cddbd v1.5.2PL0 Copyright (c) Steve Scherf et al.
# Submitted via: ExactAudioCopy v0.95b4
#
DISCID=a80e580c
DTITLE=Junior Kimbrough - You Better Run: The Essential Junior Kimbrou
DTITLE=gh
DYEAR=2002
DGENRE=Blues
TTITLE0=Release Me
TTITLE1=All Night Long
TTITLE2=Meet Me in the City
TTITLE3=You Better Run
TTITLE4=Done Got Old
TTITLE5=Sad Days Lonely Nights
TTITLE6=Old Black Mattie
TTITLE7=Most Things Haven't Worked Out
TTITLE8=I'm Leaving You Baby
TTITLE9=Keep On Braggin'
TTITLE10=Tramp
TTITLE11=Nobody But You
EXTD=
EXTT0=
EXTT1=
EXTT2=
EXTT3=
EXTT4=
EXTT5=
EXTT6=
EXTT7=
EXTT8=
EXTT9=
EXTT10=
EXTT11=
PLAYORDER=
